<svg width="16" height="16" viewBox="0 0 16 16" fill="none" xmlns="http://www.w3.org/2000/svg">
<path d="M2.66659 13.3334C2.29992 13.3334 1.98603 13.2028 1.72492 12.9417C1.46381 12.6806 1.33325 12.3667 1.33325 12V4.00002C1.33325 3.63335 1.46381 3.31946 1.72492 3.05835C1.98603 2.79724 2.29992 2.66669 2.66659 2.66669H13.3333C13.6999 2.66669 14.0138 2.79724 14.2749 3.05835C14.536 3.31946 14.6666 3.63335 14.6666 4.00002V12C14.6666 12.3667 14.536 12.6806 14.2749 12.9417C14.0138 13.2028 13.6999 13.3334 13.3333 13.3334H2.66659ZM13.3333 5.33335L8.34992 8.45002C8.29436 8.48335 8.23603 8.50835 8.17492 8.52502C8.11381 8.54169 8.05547 8.55002 7.99992 8.55002C7.94436 8.55002 7.88603 8.54169 7.82492 8.52502C7.76381 8.50835 7.70547 8.48335 7.64992 8.45002L2.66659 5.33335V12H13.3333V5.33335ZM7.99992 7.33335L13.3333 4.00002H2.66659L7.99992 7.33335ZM2.66659 5.50002V4.51669V4.53335V4.52502V5.50002Z" fill="white"/>
</svg>
