<svg width="88" height="88" viewBox="0 0 88 88" fill="none" xmlns="http://www.w3.org/2000/svg">
<path d="M6.02246 0.6875L12.9353 78.2946L43.9539 86.9433L75.0592 78.2629L81.9775 0.6875H6.02246ZM67.6163 18.4676L65.3152 44.3211L65.3221 44.4606L65.3125 44.7817V44.7789L63.6776 62.8561L63.4975 64.4621L44 69.8548L43.9848 69.8686L24.521 64.4456L23.2031 49.5H32.7477L33.4248 57.0996L44.0027 59.9665L44 59.972V59.9706L54.617 57.0632L55.739 44.6875H33.5445L33.354 42.5954L32.9202 37.6942L32.6926 35.0625H56.5826L57.4516 25.4375H21.065L20.8745 23.3468L20.4414 18.4443L20.2131 15.8125H67.8438L67.6163 18.4676Z" fill="url(#paint0_linear_107_227)"/>
<defs>
<linearGradient id="paint0_linear_107_227" x1="6.02246" y1="43.8154" x2="81.9775" y2="43.8154" gradientUnits="userSpaceOnUse">
<stop stop-color="#5B23E0"/>
<stop offset="1" stop-color="#9560FF"/>
</linearGradient>
</defs>
</svg>
