<svg width="28" height="28" viewBox="0 0 28 28" fill="none" xmlns="http://www.w3.org/2000/svg">
<path d="M16.2628 0H7C6.07174 0 5.1815 0.368749 4.52513 1.02513C3.86875 1.6815 3.5 2.57174 3.5 3.5V24.5C3.5 25.4283 3.86875 26.3185 4.52513 26.9749C5.1815 27.6313 6.07174 28 7 28H21C21.9283 28 22.8185 27.6313 23.4749 26.9749C24.1313 26.3185 24.5 25.4283 24.5 24.5V8.23725C24.4999 7.77316 24.3155 7.32811 23.9872 7L17.5 0.51275C17.1719 0.184539 16.7268 9.91155e-05 16.2628 0ZM16.625 6.125V2.625L21.875 7.875H18.375C17.9109 7.875 17.4658 7.69063 17.1376 7.36244C16.8094 7.03425 16.625 6.58913 16.625 6.125ZM7.875 15.75C7.64294 15.75 7.42038 15.6578 7.25628 15.4937C7.09219 15.3296 7 15.1071 7 14.875C7 14.6429 7.09219 14.4204 7.25628 14.2563C7.42038 14.0922 7.64294 14 7.875 14H20.125C20.3571 14 20.5796 14.0922 20.7437 14.2563C20.9078 14.4204 21 14.6429 21 14.875C21 15.1071 20.9078 15.3296 20.7437 15.4937C20.5796 15.6578 20.3571 15.75 20.125 15.75H7.875ZM7 18.375C7 18.1429 7.09219 17.9204 7.25628 17.7563C7.42038 17.5922 7.64294 17.5 7.875 17.5H20.125C20.3571 17.5 20.5796 17.5922 20.7437 17.7563C20.9078 17.9204 21 18.1429 21 18.375C21 18.6071 20.9078 18.8296 20.7437 18.9937C20.5796 19.1578 20.3571 19.25 20.125 19.25H7.875C7.64294 19.25 7.42038 19.1578 7.25628 18.9937C7.09219 18.8296 7 18.6071 7 18.375ZM7.875 22.75C7.64294 22.75 7.42038 22.6578 7.25628 22.4937C7.09219 22.3296 7 22.1071 7 21.875C7 21.6429 7.09219 21.4204 7.25628 21.2563C7.42038 21.0922 7.64294 21 7.875 21H14.875C15.1071 21 15.3296 21.0922 15.4937 21.2563C15.6578 21.4204 15.75 21.6429 15.75 21.875C15.75 22.1071 15.6578 22.3296 15.4937 22.4937C15.3296 22.6578 15.1071 22.75 14.875 22.75H7.875Z" fill="#420088"/>
</svg>
