<svg width="88" height="88" viewBox="0 0 88 88" fill="none" xmlns="http://www.w3.org/2000/svg">
<path fill-rule="evenodd" clip-rule="evenodd" d="M19.5066 25.3587C17.4119 25.3587 15.7154 23.6207 16.04 21.5673C18.0683 9.09333 27.6273 0 44.2154 0C60.8109 0 72 9.97333 72 23.5767C72 33.4327 67.0951 40.3553 58.7974 45.3787C50.684 50.2113 48.368 53.5773 48.368 60.1187V60.3387C48.368 61.3111 47.9795 62.2438 47.2878 62.9314C46.5962 63.619 45.6582 64.0053 44.6801 64.0053H39.0008C38.029 64.0054 37.0966 63.6241 36.406 62.9444C35.7154 62.2647 35.3226 61.3414 35.3129 60.3753L35.2907 58.9087C34.9736 49.9547 38.809 44.2347 47.4239 39.0207C55.021 34.386 57.7279 30.6973 57.7279 24.1487C57.7279 16.9693 52.137 11.6967 43.5221 11.6967C36.08 11.6967 30.9095 15.576 29.2279 21.978C28.7411 23.8407 27.1774 25.3587 25.2449 25.3587H19.5066ZM41.7888 88C46.3765 88 49.8653 84.524 49.8653 80.0067C49.8653 75.4747 46.3765 71.9987 41.7888 71.9987C37.3191 71.9987 33.7713 75.4747 33.7713 79.9993C33.7713 84.524 37.3191 88 41.7888 88Z" fill="url(#paint0_linear_295_2)"/>
<defs>
<linearGradient id="paint0_linear_295_2" x1="16" y1="44" x2="72" y2="44" gradientUnits="userSpaceOnUse">
<stop stop-color="#5B23E0"/>
<stop offset="1" stop-color="#9560FF"/>
</linearGradient>
</defs>
</svg>
