<svg width="16" height="16" viewBox="0 0 16 16" fill="none" xmlns="http://www.w3.org/2000/svg">
<g clip-path="url(#clip0_95_110)">
<path d="M7.752 0.0658387C7.82753 0.0226935 7.91301 0 8 0C8.08699 0 8.17247 0.0226935 8.248 0.0658387L11.998 2.20884C12.0745 2.25255 12.1381 2.31572 12.1824 2.39193C12.2266 2.46815 12.25 2.55471 12.25 2.64284V6.63784L15.748 8.63784C15.8242 8.68138 15.8877 8.74423 15.9319 8.82007C15.9761 8.8959 15.9996 8.98205 16 9.06984V13.3558C16 13.444 15.9766 13.5305 15.9324 13.6067C15.8881 13.683 15.8245 13.7461 15.748 13.7898L11.998 15.9328C11.9225 15.976 11.837 15.9987 11.75 15.9987C11.663 15.9987 11.5775 15.976 11.502 15.9328L8 13.9328L4.498 15.9338C4.42247 15.977 4.33699 15.9997 4.25 15.9997C4.16301 15.9997 4.07753 15.977 4.002 15.9338L0.252 13.7908C0.175473 13.7471 0.11186 13.684 0.0676055 13.6077C0.0233513 13.5315 2.8427e-05 13.445 0 13.3568L0 9.07084C2.8427e-05 8.98271 0.0233513 8.89615 0.0676055 8.81993C0.11186 8.74372 0.175473 8.68055 0.252 8.63684L3.75 6.63784V2.64284C3.75003 2.55471 3.77335 2.46815 3.81761 2.39193C3.86186 2.31572 3.92547 2.25255 4.002 2.20884L7.752 0.0658387ZM4.25 7.50384L1.508 9.07084L4.25 10.6378L6.992 9.07084L4.25 7.50384ZM7.5 9.93284L4.75 11.5038V14.6378L7.5 13.0668V9.93284ZM8.5 13.0668L11.25 14.6378V11.5038L8.5 9.93284V13.0668ZM9.008 9.07084L11.75 10.6378L14.492 9.07084L11.75 7.50384L9.008 9.07084ZM11.25 6.63784V3.50384L8.5 5.07584V8.20984L11.25 6.63784ZM7.5 8.20984V5.07584L4.75 3.50384V6.63784L7.5 8.20984ZM5.258 2.64284L8 4.20984L10.742 2.64284L8 1.07584L5.258 2.64284ZM15 9.93284L12.25 11.5038V14.6378L15 13.0668V9.93284ZM3.75 14.6378V11.5038L1 9.93284V13.0668L3.75 14.6378Z" fill="white"/>
</g>
<defs>
<clipPath id="clip0_95_110">
<rect width="16" height="16" fill="white"/>
</clipPath>
</defs>
</svg>
