<svg width="88" height="88" viewBox="0 0 88 88" fill="none" xmlns="http://www.w3.org/2000/svg">
<path d="M1.375 0.6875V86.625H87.3125V0.6875H1.375ZM46.8318 73.9152C45.5634 76.4926 43.142 78.1859 40.3363 79.0034C36.025 79.9934 31.9014 79.4289 28.8337 77.5878C26.7809 76.3283 25.1776 74.3896 24.0893 72.1559L30.6343 68.1478C30.6914 68.1718 30.8633 68.4826 31.0929 68.8841C31.9275 70.2824 32.6473 71.2724 34.0622 71.9675C35.4523 72.4419 38.5041 72.7451 39.6825 70.2989C40.4023 69.0546 40.1734 65.0547 40.1734 60.6293C40.1727 53.6752 40.205 46.75 40.205 39.875H48.2549C48.2549 47.4375 48.2962 54.5999 48.2549 61.9795C48.2721 66.5033 48.6647 70.5361 46.8318 73.9152ZM80.2264 71.6409C77.4283 81.2123 61.8276 81.5231 55.5933 75.1994C54.2761 73.711 53.4504 72.9334 52.6646 71.2154C55.9776 69.3096 55.9776 69.3096 59.2013 67.4444C60.9524 70.136 62.5714 71.6162 65.4844 72.2219C69.4361 72.7045 73.4119 71.3467 72.5202 67.1495C71.6038 63.7216 64.4284 62.8877 59.5451 59.2219C54.5875 55.8924 53.4256 47.8019 57.4998 43.1791C58.8576 41.4693 61.1731 40.1933 63.6027 39.5801L66.1382 39.2521C71.0064 39.1538 74.0492 40.4394 76.2829 42.9337C76.9044 43.5634 77.4118 44.2427 78.3606 45.7146C75.7673 47.3674 75.7756 47.3516 72.061 49.7564C71.2676 48.0473 69.9511 46.9748 68.5596 46.5087C66.3994 45.8542 63.6756 46.5658 63.1104 48.8483C62.9145 49.5516 62.9551 50.2061 63.2665 51.3679C64.1417 53.3638 67.0787 54.2314 69.7132 55.4421C77.297 58.5179 79.8579 61.8159 80.4877 65.7415C81.0941 69.1213 80.3412 71.3137 80.2264 71.6409Z" fill="url(#paint0_linear_107_229)"/>
<defs>
<linearGradient id="paint0_linear_107_229" x1="1.375" y1="43.6562" x2="87.3125" y2="43.6562" gradientUnits="userSpaceOnUse">
<stop stop-color="#5B23E0"/>
<stop offset="1" stop-color="#9560FF"/>
</linearGradient>
</defs>
</svg>
