<svg width="128" height="32" viewBox="0 0 128 32" fill="none" xmlns="http://www.w3.org/2000/svg">
<g clip-path="url(#clip0_78_11)">
<path d="M29.3217 3.39692V30.7692H24.8319V12.0221L16.4823 30.7692H13.371L4.98203 12.0221V30.7692H0.492188V3.39692H5.33649L14.9463 24.8615L24.5168 3.39692H29.3217ZM43.0999 31.1237C41.3932 31.1237 39.8572 30.8218 38.4919 30.2178C37.1529 29.5877 36.0895 28.7474 35.3018 27.6972C34.5141 26.6207 34.0939 25.4261 34.0415 24.1132H38.6889C38.7676 25.0322 39.2009 25.8068 39.9886 26.4369C40.8025 27.0409 41.8133 27.3428 43.0212 27.3428C44.2815 27.3428 45.2529 27.1065 45.9356 26.6338C46.6446 26.135 46.999 25.5049 46.999 24.7434C46.999 23.9295 46.6052 23.3255 45.8175 22.9317C45.056 22.5378 43.8351 22.1046 42.1547 21.632C40.5268 21.1856 39.2009 20.7524 38.1769 20.3323C37.1529 19.9122 36.2601 19.2689 35.4987 18.4025C34.7634 17.536 34.3959 16.3938 34.3959 14.976C34.3959 13.8207 34.7372 12.7705 35.4199 11.8252C36.1025 10.8537 37.0741 10.0923 38.3344 9.54092C39.6209 8.98953 41.0913 8.71384 42.7455 8.71384C45.2135 8.71384 47.1959 9.34399 48.6926 10.6043C50.2154 11.8384 51.0293 13.5319 51.1344 15.6849H46.6446C46.5658 14.7135 46.1719 13.9388 45.463 13.3612C44.7541 12.7836 43.7957 12.4948 42.5879 12.4948C41.4064 12.4948 40.5006 12.7179 39.8704 13.1643C39.2402 13.6107 38.9252 14.2015 38.9252 14.9366C38.9252 15.5142 39.1351 16 39.5553 16.3938C39.9754 16.7877 40.4874 17.1028 41.0913 17.3391C41.6951 17.5492 42.5879 17.8249 43.7695 18.1661C45.3449 18.5862 46.6314 19.0194 47.6292 19.4658C48.6532 19.8859 49.5327 20.5161 50.2679 21.3563C51.0031 22.1965 51.3838 23.3124 51.4101 24.704C51.4101 25.9381 51.0687 27.0409 50.3861 28.0123C49.7034 28.9837 48.7319 29.7452 47.4716 30.2966C46.2375 30.848 44.7803 31.1237 43.0999 31.1237ZM75.9143 9.0683V30.7692H71.4245V28.2092C70.7156 29.1019 69.7835 29.8108 68.6282 30.336C67.4992 30.8348 66.2913 31.0843 65.0048 31.0843C63.2981 31.0843 61.7621 30.7298 60.3968 30.0209C59.0577 29.312 57.9943 28.2618 57.2066 26.8701C56.4452 25.4785 56.0645 23.7981 56.0645 21.8289V9.0683H60.5149V21.1594C60.5149 23.1024 61.0007 24.599 61.9722 25.6492C62.9436 26.6732 64.2697 27.1852 65.95 27.1852C67.6304 27.1852 68.9564 26.6732 69.9279 25.6492C70.9257 24.599 71.4245 23.1024 71.4245 21.1594V9.0683H75.9143ZM108.108 8.71384C109.815 8.71384 111.337 9.0683 112.677 9.77722C114.042 10.4861 115.105 11.5364 115.867 12.928C116.654 14.3196 117.048 16 117.048 17.9692V30.7692H112.598V18.6388C112.598 16.6957 112.112 15.2123 111.141 14.1883C110.169 13.1381 108.843 12.6129 107.163 12.6129C105.482 12.6129 104.143 13.1381 103.145 14.1883C102.174 15.2123 101.688 16.6957 101.688 18.6388V30.7692H97.2378V18.6388C97.2378 16.6957 96.752 15.2123 95.7805 14.1883C94.809 13.1381 93.4831 12.6129 91.8027 12.6129C90.1222 12.6129 88.7831 13.1381 87.7855 14.1883C86.8139 15.2123 86.3282 16.6957 86.3282 18.6388V30.7692H81.8384V9.0683H86.3282V11.5495C87.0634 10.6568 87.9954 9.96101 89.1245 9.46215C90.2535 8.96328 91.4613 8.71384 92.7479 8.71384C94.4809 8.71384 96.0299 9.08143 97.3953 9.81661C98.7606 10.5518 99.8108 11.6152 100.546 13.0068C101.202 11.6939 102.226 10.6568 103.618 9.89538C105.01 9.10769 106.506 8.71384 108.108 8.71384ZM125.046 6.19322C124.231 6.19322 123.549 5.91753 122.998 5.36615C122.446 4.81476 122.171 4.13209 122.171 3.31815C122.171 2.5042 122.446 1.82153 122.998 1.27015C123.549 0.718762 124.231 0.443069 125.046 0.443069C125.834 0.443069 126.503 0.718762 127.055 1.27015C127.606 1.82153 127.882 2.5042 127.882 3.31815C127.882 4.13209 127.606 4.81476 127.055 5.36615C126.503 5.91753 125.834 6.19322 125.046 6.19322ZM127.252 9.0683V30.7692H122.761V9.0683H127.252Z" fill="white"/>
</g>
<defs>
<clipPath id="clip0_78_11">
<rect width="128" height="32" fill="white"/>
</clipPath>
</defs>
</svg>
