<svg width="17" height="16" viewBox="0 0 17 16" fill="none" xmlns="http://www.w3.org/2000/svg">
<path d="M10.9779 1.64697C10.9972 1.5842 11.004 1.51824 10.9978 1.45286C10.9916 1.38748 10.9726 1.32396 10.9419 1.26592C10.9111 1.20788 10.8693 1.15647 10.8187 1.11461C10.768 1.07275 10.7097 1.04128 10.6469 1.02197C10.5841 1.00267 10.5182 0.995915 10.4528 1.0021C10.3874 1.00829 10.3239 1.02729 10.2659 1.05803C10.2078 1.08877 10.1564 1.13063 10.1146 1.18124C10.0727 1.23184 10.0412 1.2902 10.0219 1.35297L6.02192 14.353C5.98293 14.4797 5.9959 14.6168 6.05798 14.734C6.12005 14.8512 6.22614 14.939 6.35292 14.978C6.47969 15.017 6.61676 15.004 6.73397 14.9419C6.85118 14.8798 6.93893 14.7737 6.97792 14.647L10.9779 1.64697ZM5.35392 4.14597C5.40048 4.19242 5.43742 4.24759 5.46263 4.30834C5.48784 4.36908 5.50081 4.4342 5.50081 4.49997C5.50081 4.56574 5.48784 4.63086 5.46263 4.6916C5.43742 4.75235 5.40048 4.80753 5.35392 4.85397L2.20692 7.99997L5.35392 11.146C5.4478 11.2399 5.50055 11.3672 5.50055 11.5C5.50055 11.6327 5.4478 11.7601 5.35392 11.854C5.26003 11.9479 5.13269 12.0006 4.99992 12.0006C4.86714 12.0006 4.7398 11.9479 4.64592 11.854L1.14592 8.35397C1.09935 8.30753 1.06241 8.25235 1.0372 8.1916C1.012 8.13086 0.999023 8.06574 0.999023 7.99997C0.999023 7.9342 1.012 7.86908 1.0372 7.80834C1.06241 7.74759 1.09935 7.69242 1.14592 7.64597L4.64592 4.14597C4.69236 4.09941 4.74754 4.06246 4.80828 4.03726C4.86903 4.01205 4.93415 3.99908 4.99992 3.99908C5.06568 3.99908 5.13081 4.01205 5.19155 4.03726C5.2523 4.06246 5.30747 4.09941 5.35392 4.14597ZM11.6459 4.14597C11.5994 4.19242 11.5624 4.24759 11.5372 4.30834C11.512 4.36908 11.499 4.4342 11.499 4.49997C11.499 4.56574 11.512 4.63086 11.5372 4.6916C11.5624 4.75235 11.5994 4.80753 11.6459 4.85397L14.7929 7.99997L11.6459 11.146C11.5994 11.1925 11.5626 11.2476 11.5374 11.3084C11.5122 11.3691 11.4993 11.4342 11.4993 11.5C11.4993 11.5657 11.5122 11.6308 11.5374 11.6916C11.5626 11.7523 11.5994 11.8075 11.6459 11.854C11.6924 11.9005 11.7476 11.9373 11.8083 11.9625C11.8691 11.9877 11.9342 12.0006 11.9999 12.0006C12.0657 12.0006 12.1308 11.9877 12.1915 11.9625C12.2522 11.9373 12.3074 11.9005 12.3539 11.854L15.8539 8.35397C15.9005 8.30753 15.9374 8.25235 15.9626 8.1916C15.9878 8.13086 16.0008 8.06574 16.0008 7.99997C16.0008 7.9342 15.9878 7.86908 15.9626 7.80834C15.9374 7.74759 15.9005 7.69242 15.8539 7.64597L12.3539 4.14597C12.3075 4.09941 12.2523 4.06246 12.1916 4.03726C12.1308 4.01205 12.0657 3.99908 11.9999 3.99908C11.9341 3.99908 11.869 4.01205 11.8083 4.03726C11.7475 4.06246 11.6924 4.09941 11.6459 4.14597Z" fill="white"/>
</svg>
