<svg width="64" height="64" viewBox="0 0 64 64" fill="none" xmlns="http://www.w3.org/2000/svg">
<g clip-path="url(#clip0_101_155)">
<path d="M54.404 9.30422C51.4704 6.34221 47.9764 3.994 44.1257 2.3966C40.275 0.799188 36.1448 -0.0154433 31.976 0.0002217C14.508 0.0002217 0.272 14.2322 0.256 31.7042C0.256 37.3002 1.72 42.7442 4.484 47.5642L0 64.0002L16.816 59.5922C21.4659 62.1292 26.679 63.4565 31.976 63.4522H31.992C49.464 63.4522 63.696 49.2202 63.712 31.7322C63.7156 27.5645 62.8946 23.4372 61.2965 19.588C59.6983 15.7388 57.3585 12.2438 54.404 9.30422ZM31.976 58.0842C27.2527 58.0805 22.6169 56.8097 18.552 54.4042L17.592 53.8282L7.616 56.4442L10.28 46.7122L9.656 45.7082C7.01523 41.5095 5.61859 36.6483 5.628 31.6882C5.628 17.1842 17.456 5.35222 31.992 5.35222C35.455 5.34601 38.8849 6.02532 42.0841 7.35099C45.2833 8.67666 48.1884 10.6225 50.632 13.0762C53.0836 15.5208 55.0272 18.4264 56.3508 21.6255C57.6744 24.8247 58.3518 28.2541 58.344 31.7162C58.328 46.2722 46.5 58.0842 31.976 58.0842ZM46.436 38.3482C45.648 37.9522 41.756 36.0362 41.024 35.7642C40.296 35.5042 39.764 35.3682 39.244 36.1602C38.712 36.9482 37.192 38.7442 36.736 39.2602C36.28 39.7922 35.808 39.8522 35.016 39.4602C34.228 39.0602 31.672 38.2282 28.648 35.5202C26.288 33.4202 24.708 30.8202 24.236 30.0322C23.78 29.2402 24.192 28.8162 24.588 28.4202C24.936 28.0682 25.376 27.4922 25.772 27.0362C26.172 26.5802 26.304 26.2442 26.564 25.7162C26.824 25.1802 26.7 24.7242 26.504 24.3282C26.304 23.9322 24.724 20.0242 24.056 18.4482C23.416 16.8922 22.764 17.1082 22.276 17.0882C21.82 17.0602 21.288 17.0602 20.756 17.0602C20.3543 17.0704 19.959 17.1635 19.5949 17.3335C19.2308 17.5035 18.9057 17.7468 18.64 18.0482C17.912 18.8402 15.876 20.7562 15.876 24.6642C15.876 28.5722 18.716 32.3282 19.116 32.8602C19.508 33.3922 24.692 41.3882 32.648 44.8282C34.528 45.6482 36.008 46.1322 37.164 46.5002C39.064 47.1082 40.78 47.0162 42.148 46.8202C43.668 46.5882 46.832 44.9002 47.5 43.0482C48.156 41.1922 48.156 39.6082 47.956 39.2762C47.76 38.9402 47.228 38.7442 46.436 38.3482Z" fill="url(#paint0_linear_101_155)"/>
</g>
<defs>
<linearGradient id="paint0_linear_101_155" x1="0" y1="32.0001" x2="63.712" y2="32.0001" gradientUnits="userSpaceOnUse">
<stop stop-color="#5B23E0"/>
<stop offset="1" stop-color="#9560FF"/>
</linearGradient>
<clipPath id="clip0_101_155">
<rect width="64" height="64" fill="white"/>
</clipPath>
</defs>
</svg>
